<svg width="88" height="25" viewBox="0 0 88 25" fill="none" xmlns="http://www.w3.org/2000/svg">
<g clip-path="url(#clip0_294_636)">
<path d="M19.3192 20.7926C19.7651 20.6064 19.894 20.1224 19.5502 19.8511C19.4212 19.7501 19.2386 19.7128 19.072 19.6809C18.3468 19.5267 18.0567 19.1224 18.1695 18.383C18.191 18.2394 18.2017 18.0958 18.2017 17.9522C18.2017 12.0905 18.2017 6.22878 18.2017 0.367073C18.2017 0.266009 18.191 0.159626 18.1802 0.00537109C17.3153 0.643669 16.6061 1.37239 16.5148 2.40431C16.402 3.72878 16.4449 5.06388 16.4396 6.39899C16.4288 8.71814 16.4288 11.032 16.4396 13.3511C16.4503 15.1756 16.4879 16.9947 16.5148 18.8192C16.5148 19.1649 16.3912 19.4522 16.0151 19.4841C15.5692 19.5213 15.0159 19.6437 14.8762 19.0373C14.7902 18.6543 14.903 18.2341 14.903 17.8298C14.903 13.1862 14.903 8.54261 14.903 3.89899C14.903 3.79792 14.8816 3.69686 14.8654 3.55324C14.0005 3.96282 13.3182 4.48409 13.2054 5.44686C13.1409 6.00005 13.1893 6.5692 13.1893 7.12771C13.1893 10.9628 13.1893 14.7979 13.1893 18.633C13.1893 19.3564 13.0066 19.5586 12.3619 19.5586C11.6796 19.5586 11.4969 19.3618 11.4969 18.6437C11.4969 14.7713 11.4969 10.899 11.4969 7.03197C11.4969 6.80856 11.4325 6.58516 11.3949 6.37239C10.4386 6.42558 9.72942 7.28729 9.7348 8.3458C9.74554 10.6543 9.7724 12.9575 9.78315 15.266C9.78852 16.4362 9.78852 17.6064 9.77777 18.7766C9.77777 19.1756 9.64346 19.5107 9.15458 19.5692C8.3326 19.6649 8.03712 19.4149 8.03712 18.5905C8.03712 15.3671 8.03712 12.1384 8.03712 8.91495C8.03712 8.77665 8.021 8.63303 8.01563 8.50005C7.1829 8.37239 6.28034 9.16495 6.28034 10.016C6.28034 10.8511 6.32869 11.6862 6.32869 12.5213C6.32332 14.649 6.29108 16.7713 6.28034 18.899C6.28034 19.3511 6.07081 19.5745 5.61416 19.5692C5.07692 19.5692 4.85665 19.3511 4.86202 18.766C4.87814 16.0586 4.89426 13.3511 4.91575 10.6437C4.91575 10.3298 4.84591 10.1064 4.48058 10.0852C3.63174 10.032 3.08376 10.5266 3.0945 11.3671C3.10525 12.4947 3.14285 13.6171 3.14285 14.7447C3.14285 15.8884 3.06764 17.032 3.11062 18.1756C3.1536 19.2713 3.09987 19.4149 2.07374 19.7447C1.71917 19.8564 1.56337 20.1171 1.73528 20.4628C1.82124 20.633 2.0039 20.7554 2.14359 20.899C2.69694 21.4575 2.6862 21.9203 2.10061 22.4256C1.40757 23.0213 0.709154 23.6118 0.0161133 24.2075H21.1834C20.4742 23.532 19.7597 22.8564 19.0613 22.1756C18.422 21.5532 18.5026 21.1649 19.3407 20.8139L19.3192 20.7926Z" fill="#FFC600"/>
<path d="M27.8775 17.133C25.4223 17.133 23.7783 15.2873 23.7783 12.1703V12.0107C23.7783 8.91495 25.4438 7.04793 27.9151 7.04793C29.8008 7.04793 31.2245 7.80857 31.6704 10.1437H33.8409C33.2499 6.7075 30.9612 5.18091 27.9366 5.18091C24.2619 5.18091 21.6885 7.91495 21.6885 12.0905C21.6885 16.266 24.2457 19.0001 27.8345 19.0001C30.9613 19.0001 33.3305 17.4309 33.8623 13.8777H31.7134C31.3051 16.3086 29.8277 17.133 27.8775 17.133Z" fill="#212A59"/>
<path d="M39.4172 17.3138C37.7947 17.3138 36.7578 16.3297 36.6396 14.702H43.844V13.9786C43.844 10.984 42.1625 9.11694 39.342 9.11694C36.5215 9.11694 34.6572 11.1435 34.6572 14.0797C34.6572 17.0159 36.4838 18.9201 39.4279 18.9201C41.8831 18.9201 43.2423 17.7552 43.8924 16.2872L42.1249 15.6063C41.7595 16.5318 41.0504 17.3138 39.4279 17.3138H39.4172ZM39.2936 10.7286C40.7925 10.7286 41.7058 11.5903 41.7918 13.218H36.5967C36.8008 11.6701 37.8538 10.7286 39.2936 10.7286Z" fill="#212A59"/>
<path d="M50.1355 9.07983C48.6742 9.07983 47.7018 9.80324 47.1914 11.0692V9.28196H45.2036V18.766H47.1914V14.2235C47.1914 12.0532 48.0456 10.8298 49.523 10.8298C50.8231 10.8298 51.4517 11.6117 51.4517 13.1011V18.766H53.461V13C53.461 10.4681 52.2039 9.08515 50.1355 9.08515V9.07983Z" fill="#212A59"/>
<path d="M57.6459 6.25L55.7172 7.43617V9.28192H54.1968V10.9681H55.7172V16.3936C55.7387 17.8989 56.1846 18.6862 57.9306 18.766H59.6337V17.0372H58.5001C57.893 17.0372 57.6459 16.7553 57.6459 16.1543V10.9734H59.7142V9.28723H57.6459V6.25532V6.25Z" fill="#212A59"/>
<path d="M67.2515 9.28193V13.8192C67.2515 15.867 66.5209 17.2128 64.936 17.2128C63.6359 17.2128 62.9858 16.4096 62.9858 14.9415V9.27661H60.9766V15.0426C60.9766 17.4521 62.2552 18.9202 64.4042 18.9202C65.7849 18.9202 66.7197 18.2979 67.2462 17.133V18.7607H69.2339V9.27661H67.2462L67.2515 9.28193Z" fill="#212A59"/>
<path d="M81.7145 9.07983C80.092 9.07983 79.0766 9.9043 78.6092 11.149C78.1633 9.64366 77.0888 9.07983 75.9714 9.07983C74.5907 9.07983 73.6559 9.76069 73.1724 10.9469V9.28196H71.1846V18.766H73.1724V13.4628C73.1724 11.7554 74.0266 10.8298 75.1816 10.8298C76.3367 10.8298 76.9277 11.5107 76.9277 12.9203V18.766H78.9369V13.4628C78.9369 11.8139 79.6676 10.8298 80.9462 10.8298C82.0798 10.8298 82.6923 11.5107 82.6923 12.9203V18.766H84.7015V12.8192C84.7015 10.4681 83.5465 9.08515 81.7199 9.08515L81.7145 9.07983Z" fill="#212A59"/>
<path d="M86.4421 7.02122C86.743 6.97335 86.9042 6.76591 86.9042 6.50527C86.9042 6.19144 86.6839 5.99463 86.1843 5.99463H85.502V7.86165H85.7813V7.14356H86.0338C86.4368 7.14356 86.5872 7.4042 86.6409 7.80314V7.86165H86.9418L86.931 7.7925C86.8773 7.35101 86.743 7.11165 86.4368 7.02122H86.4421ZM85.7813 6.90952V6.23399H86.1735C86.4851 6.23399 86.614 6.32973 86.614 6.53186C86.614 6.71271 86.4905 6.90952 86.1359 6.90952H85.776H85.7813Z" fill="#212A59"/>
<path d="M86.2216 5.14893C85.2385 5.14893 84.4434 5.94148 84.4434 6.90956C84.4434 7.87765 85.2439 8.6702 86.2216 8.6702C87.1994 8.6702 87.9999 7.87765 87.9999 6.90956C87.9999 5.94148 87.1994 5.14893 86.2216 5.14893ZM86.2216 8.40956C85.3889 8.40956 84.7066 7.73935 84.7066 6.90956C84.7066 6.07978 85.3835 5.40956 86.2216 5.40956C87.0597 5.40956 87.7366 6.07978 87.7366 6.90956C87.7366 7.73935 87.0597 8.40956 86.2216 8.40956Z" fill="#212A59"/>
<path d="M51.2153 23.5584C51.2153 24.3669 51.8385 24.9999 52.6283 24.9999C53.0419 24.9999 53.3159 24.8457 53.4556 24.7233V24.3031C53.3321 24.4255 53.0742 24.6063 52.6766 24.6063C52.1072 24.6063 51.629 24.1648 51.629 23.5584C51.629 22.952 52.1072 22.5106 52.6766 22.5106C53.0742 22.5106 53.3321 22.6861 53.4556 22.8138V22.3935C53.3159 22.2712 53.0419 22.1169 52.6283 22.1169C51.8332 22.1169 51.2153 22.7499 51.2153 23.5584Z" fill="#212A59"/>
<path d="M57.8713 22.1597L56.8506 24.9629H57.2804L57.5221 24.3086H58.6933L58.9297 24.9629H59.3595L58.3387 22.1597H57.866H57.8713ZM57.6672 23.915L58.1077 22.6969L58.5536 23.915H57.6672Z" fill="#212A59"/>
<path d="M63.8186 22.1597H62.8354V24.9629H63.2545V24.0373H63.8186C64.3666 24.0373 64.834 23.7075 64.834 23.1012C64.834 22.4948 64.3666 22.1597 63.8186 22.1597ZM63.8186 23.6437H63.2545V22.548H63.8186C64.1678 22.548 64.4203 22.7288 64.4203 23.0958C64.4203 23.4629 64.1678 23.6437 63.8186 23.6437Z" fill="#212A59"/>
<path d="M68.7989 22.1597H68.3853V24.9629H68.7989V22.1597Z" fill="#212A59"/>
<path d="M72.3018 22.548H72.9841V24.9575H73.3977V22.548H74.08V22.1597H72.3018V22.548Z" fill="#212A59"/>
<path d="M78.0989 22.1597L77.0781 24.9629H77.5079L77.7497 24.3086H78.9209L79.1572 24.9629H79.587L78.5663 22.1597H78.0935H78.0989ZM77.8894 23.915L78.3299 22.6969L78.7758 23.915H77.8894Z" fill="#212A59"/>
<path d="M83.5411 22.1597H83.1221V24.9575H84.6962V24.5692H83.5411V22.1597Z" fill="#212A59"/>
</g>
<defs>
<clipPath id="clip0_294_636">
<rect width="88" height="25" fill="white"/>
</clipPath>
</defs>
</svg>
